<svg xmlns="http://www.w3.org/2000/svg" xmlns:xlink="http://www.w3.org/1999/xlink" version="1.1" x="0px" y="0px" viewBox="0 0 100 125" style="enable-background:new 0 0 100 100;" xml:space="preserve"><path d="M50.062,54.438c2.619,0,4.749-2.13,4.749-4.749s-2.13-4.749-4.749-4.749s-4.749,2.13-4.749,4.749  S47.444,54.438,50.062,54.438z M50.062,46.94c1.516,0,2.749,1.233,2.749,2.749s-1.233,2.749-2.749,2.749s-2.749-1.233-2.749-2.749  S48.547,46.94,50.062,46.94z"/><path d="M50.062,41.151c2.619,0,4.749-2.13,4.749-4.749s-2.13-4.749-4.749-4.749s-4.749,2.13-4.749,4.749  S47.444,41.151,50.062,41.151z M50.062,33.653c1.516,0,2.749,1.233,2.749,2.749s-1.233,2.749-2.749,2.749s-2.749-1.233-2.749-2.749  S48.547,33.653,50.062,33.653z"/><path d="M35.961,38.444c-1.633,2.047-1.296,5.041,0.751,6.674c0.873,0.696,1.918,1.034,2.956,1.034c1.397,0,2.782-0.612,3.718-1.786  c1.632-2.047,1.295-5.041-0.752-6.674c-0.992-0.792-2.23-1.147-3.493-1.006C37.882,36.828,36.752,37.452,35.961,38.444z   M37.525,39.691c0.458-0.574,1.112-0.936,1.842-1.018c0.727-0.081,1.447,0.125,2.021,0.583c1.185,0.945,1.38,2.678,0.436,3.863  c-0.946,1.185-2.679,1.38-3.864,0.436c-0.574-0.458-0.936-1.112-1.018-1.842C36.86,40.983,37.067,40.265,37.525,39.691z"/><path d="M34.582,56.667c0.767,0.481,1.634,0.729,2.518,0.729c0.354,0,0.712-0.04,1.066-0.121c1.237-0.282,2.29-1.029,2.965-2.104  c0.675-1.074,0.891-2.347,0.609-3.583c-0.583-2.553-3.135-4.155-5.687-3.573c-1.237,0.283-2.29,1.03-2.964,2.104  c-0.675,1.074-0.891,2.347-0.609,3.583C32.761,54.939,33.508,55.992,34.582,56.667z M34.781,51.183c0.391-0.622,1-1.054,1.716-1.217  c0.205-0.047,0.41-0.069,0.612-0.069c1.254,0,2.39,0.865,2.68,2.137c0.164,0.716,0.038,1.453-0.353,2.075  c-0.391,0.622-1,1.054-1.715,1.217c0,0,0,0,0,0c-0.715,0.165-1.453,0.039-2.074-0.352c-0.622-0.391-1.054-1-1.217-1.716  C34.265,52.542,34.39,51.805,34.781,51.183z"/><path d="M40.019,59.6c-0.55,1.143-0.623,2.432-0.204,3.629c0.419,1.198,1.279,2.16,2.422,2.71c0.653,0.314,1.354,0.473,2.057,0.473  c0.528,0,1.059-0.089,1.572-0.269c1.198-0.419,2.16-1.279,2.71-2.422c0.55-1.143,0.623-2.432,0.204-3.629  c-0.419-1.197-1.279-2.16-2.422-2.71c-1.142-0.55-2.431-0.623-3.629-0.204C41.531,57.597,40.569,58.457,40.019,59.6z M45.49,59.184  c0.662,0.319,1.16,0.876,1.402,1.569c0.243,0.693,0.201,1.439-0.118,2.1c-0.319,0.662-0.876,1.16-1.569,1.402  c-0.693,0.243-1.44,0.2-2.101-0.118c-0.662-0.318-1.159-0.875-1.402-1.569c-0.243-0.693-0.201-1.439,0.118-2.101  c0.473-0.982,1.458-1.556,2.481-1.556C44.701,58.912,45.106,58.999,45.49,59.184z"/><path d="M51.345,60.092c-0.419,1.198-0.347,2.486,0.204,3.629c0.55,1.143,1.513,2.003,2.71,2.422  c0.513,0.18,1.043,0.269,1.572,0.269c0.704,0,1.404-0.159,2.057-0.473c1.143-0.55,2.003-1.512,2.422-2.71  c0.419-1.197,0.347-2.486-0.204-3.629v0c-0.55-1.143-1.513-2.003-2.71-2.422c-1.198-0.419-2.487-0.346-3.629,0.204  C52.625,57.932,51.764,58.895,51.345,60.092z M54.635,59.184c0.383-0.185,0.789-0.272,1.188-0.272c1.023,0,2.008,0.574,2.481,1.556  c0.318,0.662,0.36,1.408,0.118,2.101c-0.243,0.693-0.74,1.25-1.402,1.569c-0.663,0.319-1.409,0.36-2.101,0.118  c-0.693-0.243-1.25-0.741-1.569-1.402c-0.318-0.661-0.36-1.407-0.118-2.1C53.475,60.06,53.973,59.502,54.635,59.184z"/><path d="M64.073,48.016C64.073,48.016,64.073,48.016,64.073,48.016c-2.556-0.582-5.104,1.021-5.687,3.574  c-0.282,1.236-0.066,2.509,0.609,3.583c0.675,1.074,1.728,1.821,2.964,2.104c0.354,0.081,0.711,0.121,1.066,0.121  c0.883,0,1.751-0.248,2.518-0.729c1.074-0.675,1.821-1.728,2.103-2.964c0.282-1.237,0.066-2.509-0.609-3.583  C66.363,49.045,65.31,48.298,64.073,48.016z M65.696,53.258c-0.163,0.716-0.595,1.325-1.217,1.716  c-0.621,0.391-1.357,0.517-2.075,0.352c-0.715-0.163-1.325-0.595-1.715-1.217c-0.391-0.622-0.516-1.358-0.353-2.074  c0.291-1.273,1.426-2.138,2.68-2.138c0.202,0,0.407,0.022,0.612,0.069c0.716,0.164,1.325,0.596,1.716,1.217  S65.86,52.542,65.696,53.258z"/><path d="M60.456,46.152c1.039,0,2.083-0.338,2.957-1.034c2.047-1.633,2.384-4.626,0.751-6.674c-0.791-0.992-1.92-1.616-3.181-1.758  c-1.259-0.141-2.5,0.215-3.493,1.006c-2.047,1.633-2.384,4.626-0.752,6.674C57.674,45.54,59.059,46.152,60.456,46.152z   M58.737,39.255c0.492-0.392,1.089-0.6,1.708-0.6c0.104,0,0.208,0.006,0.313,0.018c0.73,0.082,1.384,0.444,1.842,1.018  s0.665,1.292,0.583,2.021c-0.082,0.73-0.443,1.384-1.018,1.842c-1.186,0.944-2.919,0.749-3.864-0.436  C57.356,41.934,57.552,40.201,58.737,39.255z"/><path d="M50,90c22.056,0,40-17.944,40-40S72.056,10,50,10S10,27.944,10,50S27.944,90,50,90z M50,12c20.953,0,38,17.047,38,38  S70.953,88,50,88S12,70.953,12,50S29.047,12,50,12z"/><path d="M29.963,77.535c1.306,0.293,2.539,0.57,3.493,1.123c0.929,0.537,1.771,1.456,2.662,2.428  c1.328,1.449,2.702,2.948,4.626,3.463c1.844,0.492,3.744-0.101,5.583-0.674c1.301-0.406,2.529-0.79,3.673-0.79  s2.373,0.383,3.673,0.79c1.357,0.423,2.748,0.857,4.125,0.857c0.488,0,0.975-0.055,1.458-0.184c1.924-0.515,3.298-2.013,4.626-3.462  c0.892-0.973,1.733-1.891,2.663-2.428c0.954-0.552,2.188-0.83,3.494-1.123c1.9-0.427,3.866-0.869,5.247-2.25  c1.381-1.381,1.823-3.347,2.25-5.247c0.293-1.306,0.57-2.539,1.123-3.493c0.537-0.929,1.456-1.771,2.428-2.662  c1.449-1.328,2.948-2.702,3.463-4.626c0.493-1.844-0.101-3.745-0.674-5.583c-0.406-1.301-0.79-2.529-0.79-3.673  s0.383-2.373,0.79-3.673c0.573-1.838,1.167-3.739,0.674-5.583c-0.515-1.924-2.013-3.298-3.462-4.626  c-0.973-0.892-1.891-1.733-2.428-2.663c-0.552-0.954-0.83-2.188-1.123-3.494c-0.427-1.9-0.869-3.866-2.25-5.247  c-1.381-1.381-3.347-1.823-5.247-2.25c-1.306-0.293-2.539-0.57-3.493-1.123c-0.929-0.537-1.771-1.456-2.662-2.428  c-1.328-1.449-2.702-2.948-4.626-3.463c-1.846-0.493-3.746,0.1-5.583,0.674c-1.301,0.406-2.529,0.79-3.673,0.79  s-2.373-0.383-3.673-0.79c-1.838-0.573-3.737-1.166-5.583-0.674c-1.924,0.515-3.298,2.013-4.626,3.462  c-0.892,0.973-1.733,1.891-2.663,2.428c-0.954,0.552-2.188,0.83-3.494,1.123c-1.9,0.427-3.866,0.869-5.247,2.25  c-1.381,1.381-1.823,3.347-2.25,5.247c-0.293,1.306-0.57,2.539-1.123,3.493c-0.537,0.929-1.456,1.771-2.428,2.662  c-1.449,1.328-2.948,2.702-3.463,4.626c-0.493,1.844,0.101,3.745,0.674,5.583c0.406,1.301,0.79,2.529,0.79,3.673  s-0.383,2.373-0.79,3.673c-0.573,1.838-1.167,3.739-0.674,5.583c0.515,1.924,2.013,3.298,3.462,4.626  c0.973,0.892,1.891,1.733,2.428,2.663c0.552,0.954,0.83,2.188,1.123,3.494c0.427,1.9,0.869,3.866,2.25,5.247  C26.097,76.667,28.062,77.108,29.963,77.535z M23.074,65.543c-0.691-1.195-1.768-2.182-2.809-3.135  c-1.294-1.187-2.518-2.308-2.881-3.668c-0.344-1.285,0.139-2.832,0.65-4.471c0.433-1.387,0.88-2.82,0.88-4.269  s-0.447-2.882-0.88-4.269c-0.511-1.638-0.994-3.186-0.65-4.47c0.364-1.361,1.586-2.482,2.881-3.669  c1.041-0.954,2.117-1.939,2.808-3.134c0.705-1.219,1.029-2.661,1.342-4.056c0.381-1.697,0.741-3.3,1.712-4.271  s2.574-1.331,4.271-1.713c1.396-0.313,2.838-0.638,4.057-1.343c1.195-0.691,2.182-1.768,3.135-2.809  c1.187-1.294,2.308-2.518,3.668-2.881c1.283-0.345,2.832,0.139,4.471,0.65c1.387,0.433,2.82,0.88,4.269,0.88s2.882-0.447,4.269-0.88  c1.638-0.511,3.186-0.996,4.47-0.65c1.361,0.364,2.482,1.586,3.669,2.881c0.954,1.041,1.939,2.117,3.134,2.808  c1.219,0.705,2.661,1.029,4.056,1.342c1.697,0.381,3.3,0.741,4.271,1.712s1.331,2.574,1.713,4.271  c0.313,1.396,0.638,2.838,1.343,4.057c0.691,1.195,1.768,2.182,2.809,3.135c1.294,1.187,2.518,2.308,2.881,3.668  c0.344,1.285-0.139,2.832-0.65,4.471c-0.433,1.387-0.88,2.82-0.88,4.269s0.447,2.882,0.88,4.269c0.511,1.638,0.994,3.186,0.65,4.47  c-0.364,1.361-1.586,2.482-2.881,3.669c-1.041,0.954-2.117,1.939-2.808,3.134c-0.705,1.219-1.029,2.661-1.342,4.056  c-0.381,1.697-0.741,3.3-1.712,4.271s-2.574,1.331-4.271,1.713c-1.396,0.313-2.838,0.638-4.057,1.343  c-1.195,0.691-2.182,1.768-3.135,2.809c-1.187,1.294-2.308,2.518-3.668,2.881c-1.285,0.343-2.833-0.14-4.471-0.65  c-1.387-0.433-2.82-0.88-4.269-0.88s-2.882,0.447-4.269,0.88c-1.639,0.51-3.188,0.993-4.47,0.65  c-1.361-0.364-2.482-1.586-3.669-2.881c-0.954-1.041-1.939-2.117-3.134-2.808c-1.219-0.705-2.661-1.029-4.056-1.342  c-1.697-0.381-3.3-0.741-4.271-1.712s-1.331-2.574-1.713-4.271C24.104,68.205,23.779,66.762,23.074,65.543z"/><path d="M49.375,25.02h1.751c0.552,0,1-0.448,1-1s-0.448-1-1-1h-1.751c-0.552,0-1,0.448-1,1S48.822,25.02,49.375,25.02z"/><path d="M41.377,26.485c0.102,0,0.207-0.016,0.309-0.049l1.666-0.541c0.525-0.171,0.812-0.735,0.642-1.26  c-0.17-0.524-0.733-0.812-1.26-0.642l-1.666,0.541c-0.525,0.171-0.812,0.735-0.642,1.26C40.563,26.216,40.955,26.485,41.377,26.485z  "/><path d="M34.224,30.35c0.204,0,0.409-0.062,0.587-0.191l1.417-1.029c0.447-0.325,0.546-0.95,0.221-1.397  c-0.325-0.446-0.949-0.546-1.397-0.221l-1.417,1.029c-0.447,0.325-0.546,0.95-0.221,1.397C33.61,30.207,33.915,30.35,34.224,30.35z"/><path d="M28.613,36.235c0.31,0,0.614-0.143,0.81-0.412l1.029-1.417c0.325-0.447,0.226-1.072-0.221-1.397s-1.072-0.224-1.397,0.221  l-1.029,1.417c-0.325,0.447-0.226,1.072,0.221,1.397C28.204,36.173,28.41,36.235,28.613,36.235z"/><path d="M24.79,43.518c0.103,0.033,0.207,0.049,0.309,0.049c0.422,0,0.814-0.269,0.951-0.691l0.541-1.666  c0.17-0.525-0.117-1.09-0.642-1.26c-0.527-0.169-1.09,0.118-1.26,0.642l-0.541,1.666C23.977,42.783,24.265,43.348,24.79,43.518z"/><path d="M25.02,50.625v-1.751c0-0.552-0.448-1-1-1s-1,0.448-1,1v1.751c0,0.552,0.448,1,1,1S25.02,51.178,25.02,50.625z"/><path d="M26.436,58.314l-0.541-1.666c-0.17-0.524-0.734-0.812-1.26-0.642c-0.525,0.171-0.812,0.735-0.642,1.26l0.541,1.666  c0.137,0.422,0.529,0.691,0.951,0.691c0.102,0,0.207-0.016,0.309-0.049C26.319,59.403,26.606,58.839,26.436,58.314z"/><path d="M28.541,66.365c0.196,0.269,0.5,0.412,0.81,0.412c0.204,0,0.409-0.062,0.587-0.191c0.447-0.325,0.546-0.95,0.221-1.397  l-1.029-1.417c-0.324-0.446-0.949-0.546-1.397-0.221c-0.447,0.325-0.546,0.95-0.221,1.397L28.541,66.365z"/><path d="M34.407,69.547c-0.448-0.324-1.072-0.225-1.397,0.221c-0.325,0.447-0.226,1.072,0.221,1.397l1.417,1.029  c0.178,0.129,0.383,0.191,0.587,0.191c0.31,0,0.614-0.143,0.81-0.412c0.325-0.447,0.226-1.072-0.221-1.397L34.407,69.547z"/><path d="M42.876,73.95l-1.666-0.541c-0.529-0.17-1.089,0.118-1.26,0.642c-0.17,0.525,0.117,1.09,0.642,1.26l1.666,0.541  c0.103,0.033,0.207,0.049,0.309,0.049c0.422,0,0.814-0.269,0.951-0.691C43.688,74.685,43.401,74.121,42.876,73.95z"/><path d="M50.625,74.98h-1.751c-0.552,0-1,0.448-1,1s0.448,1,1,1h1.751c0.552,0,1-0.448,1-1S51.178,74.98,50.625,74.98z"/><path d="M58.314,73.564l-1.666,0.541c-0.525,0.171-0.812,0.735-0.642,1.26c0.137,0.422,0.529,0.691,0.951,0.691  c0.102,0,0.207-0.016,0.309-0.049l1.666-0.541c0.525-0.171,0.812-0.735,0.642-1.26C59.404,73.682,58.84,73.395,58.314,73.564z"/><path d="M65.189,69.841l-1.417,1.029c-0.447,0.325-0.546,0.95-0.221,1.397c0.196,0.269,0.5,0.412,0.81,0.412  c0.204,0,0.409-0.062,0.587-0.191l1.417-1.029c0.447-0.325,0.546-0.95,0.221-1.397C66.261,69.617,65.637,69.517,65.189,69.841z"/><path d="M70.355,67.181c0.31,0,0.614-0.143,0.81-0.412l1.029-1.417c0.325-0.447,0.226-1.072-0.221-1.397  c-0.448-0.324-1.071-0.225-1.397,0.221l-1.029,1.417c-0.325,0.447-0.226,1.072,0.221,1.397  C69.946,67.119,70.152,67.181,70.355,67.181z"/><path d="M74.051,60.05c0.103,0.033,0.207,0.049,0.309,0.049c0.422,0,0.814-0.269,0.951-0.691l0.541-1.666  c0.17-0.525-0.117-1.09-0.642-1.26c-0.527-0.169-1.09,0.118-1.26,0.642l-0.541,1.666C73.239,59.315,73.526,59.88,74.051,60.05z"/><path d="M74.98,49.375v1.751c0,0.552,0.448,1,1,1s1-0.448,1-1v-1.751c0-0.552-0.448-1-1-1S74.98,48.822,74.98,49.375z"/><path d="M74.105,43.352c0.137,0.422,0.529,0.691,0.951,0.691c0.102,0,0.207-0.016,0.309-0.049c0.525-0.171,0.812-0.735,0.642-1.26  l-0.541-1.666c-0.17-0.524-0.733-0.811-1.26-0.642c-0.525,0.171-0.812,0.735-0.642,1.26L74.105,43.352z"/><path d="M70.871,36.228c0.196,0.269,0.5,0.412,0.81,0.412c0.204,0,0.409-0.062,0.587-0.191c0.447-0.325,0.546-0.95,0.221-1.397  l-1.029-1.417c-0.324-0.446-0.949-0.546-1.397-0.221c-0.447,0.325-0.546,0.95-0.221,1.397L70.871,36.228z"/><path d="M65.593,30.453c0.178,0.129,0.383,0.191,0.587,0.191c0.31,0,0.614-0.143,0.81-0.412c0.325-0.447,0.226-1.072-0.221-1.397  l-1.417-1.029c-0.448-0.325-1.072-0.224-1.397,0.221c-0.325,0.447-0.226,1.072,0.221,1.397L65.593,30.453z"/><path d="M57.124,26.05l1.666,0.541c0.103,0.033,0.207,0.049,0.309,0.049c0.422,0,0.814-0.269,0.951-0.691  c0.17-0.525-0.117-1.09-0.642-1.26l-1.666-0.541c-0.529-0.17-1.089,0.118-1.26,0.642C56.312,25.315,56.599,25.879,57.124,26.05z"/></svg>