<svg xmlns="http://www.w3.org/2000/svg" xmlns:xlink="http://www.w3.org/1999/xlink" version="1.1" x="0px" y="0px" viewBox="0 0 530 662.5" style="enable-background:new 0 0 530 530;" xml:space="preserve"><g><g><path d="M462.032,49.158C450.101,36.08,432.528,27.84,413.555,27.84H176.654c-18.492,0-36.087,7.8-48.184,21.012    c-14.52,15.858-26.372,33.321-35.568,51.793c-104.482,84.531-112.518,240.544-17.724,335.34    c76.942,76.941,194.261,86.216,281.071,30.805c34.775-22.198,62.767-53.377,81.058-90.239    C539.768,293.093,548.319,143.742,462.032,49.158z M413.555,42.897c3.796,0,7.546,0.439,11.189,1.262    c-24.606,48.703-74.592,79.746-129.633,79.746c-55.052,0-105.037-31.047-129.636-79.759c3.636-0.814,7.382-1.249,11.179-1.249    H413.555z M234.883,487.081c-116.234,0-210.799-94.565-210.799-210.799c0-53.491,19.924-103.93,55.508-142.568    c-24.084,76.932-6.229,164.409,54.74,226.204c72.867,73.852,185.743,87.899,273.55,36.969    C368.835,453.212,305.096,487.081,234.883,487.081z M505.82,207.546c-3.295,114.055-98.761,206.097-213.782,204.529    c-114.541-1.636-207.726-96.19-207.726-210.778c0-52.827,19.626-103.356,55.263-142.278c3.434-3.75,7.425-6.908,11.796-9.413    c26.905,54.526,82.482,89.355,143.74,89.355c61.24,0,116.81-34.816,143.727-89.323c4.466,2.563,8.55,5.809,12.07,9.667    C487.908,99.865,507.41,152.511,505.82,207.546z"/><path d="M155.833,178.411c-14.53,0-26.35,11.82-26.35,26.35c0,14.53,11.82,26.35,26.35,26.35c14.53,0,26.35-11.82,26.35-26.35    C182.183,190.231,170.363,178.411,155.833,178.411z M155.833,216.054c-6.227,0-11.293-5.066-11.293-11.293    s5.066-11.293,11.293-11.293c6.227,0,11.293,5.066,11.293,11.293S162.06,216.054,155.833,216.054z"/><path d="M408.039,204.761c0,14.53,11.82,26.35,26.35,26.35c14.53,0,26.35-11.82,26.35-26.35c0-14.53-11.82-26.35-26.35-26.35    C419.859,178.411,408.039,190.231,408.039,204.761z M445.682,204.761c0,6.227-5.066,11.293-11.293,11.293    c-6.227,0-11.293-5.066-11.293-11.293s5.066-11.293,11.293-11.293C440.616,193.468,445.682,198.534,445.682,204.761z"/><path d="M295.111,313.925c-14.53,0-26.35,11.82-26.35,26.35c0,14.53,11.82,26.35,26.35,26.35c14.53,0,26.35-11.82,26.35-26.35    C321.461,325.745,309.641,313.925,295.111,313.925z M295.111,351.567c-6.227,0-11.293-5.066-11.293-11.293    c0-6.227,5.066-11.293,11.293-11.293c6.227,0,11.293,5.066,11.293,11.293C306.404,346.501,301.338,351.567,295.111,351.567z"/><ellipse transform="matrix(0.9732 -0.2298 0.2298 0.9732 -31.3661 72.3735)" cx="295.111" cy="170.882" rx="7.529" ry="7.529"/><circle cx="212.297" cy="276.282" r="7.529"/><ellipse transform="matrix(0.7071 -0.7071 0.7071 0.7071 -82.4641 353.4779)" cx="385.454" cy="276.282" rx="7.529" ry="7.529"/><path d="M76.783,344.039c-3.907,0-7.289,3.047-7.513,7.109c-0.242,4.387,3.27,7.948,7.513,7.948c4.136,0,7.528-3.368,7.528-7.529    C84.312,347.441,80.954,344.039,76.783,344.039z"/><ellipse transform="matrix(0.7071 -0.7071 0.7071 0.7071 -252.5021 274.2256)" cx="204.769" cy="441.91" rx="7.529" ry="7.529"/></g></g></svg>