<svg xmlns="http://www.w3.org/2000/svg" data-name="Layer 1" viewBox="0 0 96 120" x="0px" y="0px"><path d="M46.565,24.139l.75-.75-.75-.75a.479.479,0,1,1,.677-.677l.75.75.749-.75a.479.479,0,0,1,.677.677l-.749.75.749.75a.479.479,0,0,1-.677.677l-.749-.75-.75.75a.479.479,0,1,1-.677-.677ZM85.916,65.585A38.4,38.4,0,0,1,81.1,77.768,16.906,16.906,0,0,1,66.74,85.816H29.26A16.906,16.906,0,0,1,14.9,77.768a38.4,38.4,0,0,1-4.813-12.183,2.88,2.88,0,0,1,.4-5.732H11.1A13.164,13.164,0,0,1,24.156,47.526,13.174,13.174,0,0,1,36.015,28.842a13.171,13.171,0,1,1,23.949,0,13.174,13.174,0,0,1,11.88,18.685A13.164,13.164,0,0,1,84.905,59.853h.615a2.88,2.88,0,0,1,.4,5.732Zm-14.151-17.1a12.251,12.251,0,0,0-11.372,7.757,13.085,13.085,0,0,1,.747,3.614H83.946A12.141,12.141,0,0,0,71.765,48.482ZM35.82,59.853H60.18a12.209,12.209,0,0,0-24.36,0ZM59.882,29.8a12.215,12.215,0,0,0-10.876,17.77,13.192,13.192,0,0,1,10.875,7.449A13.226,13.226,0,0,1,70.76,47.563,12.214,12.214,0,0,0,59.882,29.8Zm-24.1-6.443A12.236,12.236,0,0,0,37.1,28.877,13.263,13.263,0,0,1,48,36.33a13.19,13.19,0,0,1,10.881-7.449,12.213,12.213,0,1,0-23.105-5.527ZM23.905,42.009a12.238,12.238,0,0,0,1.335,5.554,13.259,13.259,0,0,1,10.879,7.452,13.187,13.187,0,0,1,11.8-7.489,13.173,13.173,0,0,1-.431-9.973,12.214,12.214,0,0,0-23.585,4.456ZM12.054,59.853H34.86a13.085,13.085,0,0,1,.747-3.614,12.274,12.274,0,0,0-11.372-7.757A12.141,12.141,0,0,0,12.054,59.853Zm.339,10.435H83.607a37.361,37.361,0,0,0,1.324-4.673H11.069A37.361,37.361,0,0,0,12.393,70.288Zm67.78,7.159H15.827A15.946,15.946,0,0,0,29.26,84.859H66.74A15.946,15.946,0,0,0,80.173,77.447Zm3.081-6.2H12.746a37.6,37.6,0,0,0,2.507,5.244H80.747A37.6,37.6,0,0,0,83.254,71.246Zm4.19-8.512A1.926,1.926,0,0,0,85.52,60.81H10.48a1.924,1.924,0,1,0,0,3.847H85.52A1.926,1.926,0,0,0,87.444,62.734ZM25.82,50.554a.48.48,0,0,0-.677,0l-.908.907-.907-.907a.479.479,0,1,0-.678.677l.908.907-.908.908a.479.479,0,1,0,.678.677l.907-.907.908.907a.479.479,0,0,0,.677-.677l-.907-.908.907-.907A.48.48,0,0,0,25.82,50.554ZM17.957,55.48a.479.479,0,0,0-.677,0l-.907.907-.908-.907a.479.479,0,0,0-.677.677l.907.908-.907.907a.479.479,0,1,0,.677.677l.908-.907.907.907a.479.479,0,1,0,.677-.677l-.907-.907.907-.908A.477.477,0,0,0,17.957,55.48Zm14.736,1.452.908-.908a.479.479,0,0,0-.677-.677l-.908.908-.908-.908a.479.479,0,0,0-.677.677l.908.908-.908.908a.479.479,0,1,0,.677.677l.908-.908.908.908a.479.479,0,0,0,.677-.677Zm16.892-6.377a.479.479,0,0,0-.677,0L48,51.462l-.908-.907a.479.479,0,0,0-.677.677l.908.907-.908.908a.479.479,0,1,0,.677.677L48,52.817l.908.907a.479.479,0,0,0,.677-.677l-.908-.908.908-.907A.479.479,0,0,0,49.585,50.555ZM41.722,55.48a.479.479,0,0,0-.677,0l-.908.907-.908-.907a.479.479,0,0,0-.677.677l.908.908-.908.907a.479.479,0,1,0,.677.677l.908-.907.908.907a.479.479,0,0,0,.677-.677l-.908-.907.908-.908A.479.479,0,0,0,41.722,55.48Zm14.736,1.452.908-.908a.479.479,0,0,0-.677-.677l-.908.908-.908-.908a.479.479,0,0,0-.677.677l.908.908-.908.908a.479.479,0,1,0,.677.677l.908-.908.908.908a.479.479,0,0,0,.677-.677Zm14.4-6.377a.479.479,0,1,0-.677.677l.907.907-.907.908a.479.479,0,1,0,.677.677l.908-.907.907.907a.479.479,0,0,0,.678-.677l-.908-.908.908-.907a.479.479,0,1,0-.678-.677l-.907.907Zm-5.37,4.925a.48.48,0,0,0-.678,0l-.907.907-.908-.907a.479.479,0,0,0-.677.677l.908.908-.908.907a.479.479,0,1,0,.677.677l.908-.907.907.907a.479.479,0,1,0,.678-.677l-.908-.907.908-.908A.479.479,0,0,0,65.487,55.48ZM77.96,58.517a.478.478,0,0,0,.678,0l.907-.907.908.907a.479.479,0,0,0,.677-.677l-.908-.908.908-.908a.479.479,0,0,0-.677-.677l-.908.908-.907-.908a.479.479,0,0,0-.678.677l.908.908-.908.908A.479.479,0,0,0,77.96,58.517ZM34.533,35.039a.479.479,0,0,0,.677,0l.908-.908.908.908a.479.479,0,0,0,.677,0,.479.479,0,0,0,0-.677l-.908-.908.908-.908a.479.479,0,1,0-.677-.677l-.908.908-.908-.908a.479.479,0,1,0-.677.677l.908.908-.908.908A.479.479,0,0,0,34.533,35.039Zm-6.955,3.34-.908.908a.479.479,0,1,0,.677.677l.908-.908.908.908a.479.479,0,1,0,.677-.677l-.908-.908.908-.907a.479.479,0,1,0-.677-.678l-.908.908-.908-.908a.479.479,0,1,0-.677.678Zm14.736,1.453a.479.479,0,0,0,.677,0l.908-.908.907.908a.479.479,0,0,0,.677-.677l-.907-.908.907-.908a.479.479,0,0,0-.677-.677l-.907.908-.908-.908a.479.479,0,0,0-.677.677l.907.908-.907.908A.479.479,0,0,0,42.314,39.832Zm16.66-7.963a.479.479,0,1,0-.677.677l.908.908-.908.908a.479.479,0,0,0,.339.817.474.474,0,0,0,.338-.14l.908-.908.908.908a.479.479,0,1,0,.677-.677l-.908-.908.908-.908a.479.479,0,1,0-.677-.677l-.908.908ZM53.6,36.794a.48.48,0,0,0-.677,0l-.908.908-.908-.908a.479.479,0,1,0-.677.678l.908.907-.908.908a.479.479,0,1,0,.677.677l.908-.907.908.907a.479.479,0,1,0,.677-.677l-.907-.908.907-.907A.48.48,0,0,0,53.6,36.794Zm12.474,3.038a.479.479,0,0,0,.677,0l.908-.908.908.908a.479.479,0,0,0,.677,0,.479.479,0,0,0,0-.677l-.908-.908.908-.908a.479.479,0,1,0-.677-.677l-.908.908-.908-.908a.479.479,0,0,0-.677.677l.908.908-.908.908A.479.479,0,0,0,66.078,39.832ZM39.45,19.724l-.907.908a.479.479,0,0,0,.677.677l.907-.908.908.908a.479.479,0,1,0,.677-.677l-.907-.908.907-.908a.479.479,0,0,0-.677-.677l-.908.908-.907-.908a.479.479,0,0,0-.677.677Zm14.736,1.453a.479.479,0,0,0,.677,0l.908-.908.908.908a.479.479,0,0,0,.677-.677l-.908-.908.908-.908a.479.479,0,0,0-.677-.677l-.908.908-.908-.908a.479.479,0,0,0-.677.677l.908.908-.908.908A.479.479,0,0,0,54.186,21.177Z"/></svg>