<svg xmlns="http://www.w3.org/2000/svg" xmlns:xlink="http://www.w3.org/1999/xlink" version="1.1" x="0px" y="0px" viewBox="0 0 100 125" style="enable-background:new 0 0 100 100;" xml:space="preserve"><g><g><path d="M95,65h-2.4c-0.5-1.3-2-2.3-3.8-3.6c0,0-0.1-0.1-0.1-0.1c1.8-1.9,3.1-3.9,4-6c2.8-6.9,0.4-14.3,0.3-14.6    c-0.1-0.3-0.3-0.5-0.6-0.6c-0.3-0.1-0.6-0.1-0.8,0c-0.2,0.1-4.8,2.5-8,7.1c-2.1-4.7-5.4-7.7-5.5-7.8c-0.2-0.2-0.5-0.3-0.8-0.2    c-0.3,0-0.5,0.2-0.7,0.4c-0.2,0.3-3.8,6-3.5,12.8c0,0-0.1,0-0.1,0c-0.9-0.4-1.8-1-2.8-1.7c-1.3-0.9-2.6-1.9-4.2-2.3    c-1.5-0.4-3.1-0.2-4.7-0.1c-1.2,0.1-2.4,0.3-3.4,0.1c-1-0.1-2.1-0.6-3.2-1c-1.5-0.6-3-1.2-4.6-1.2s-3.2,0.6-4.6,1.2    c-1.1,0.4-2.1,0.9-3.2,1c-1.1,0.1-2.2,0-3.4-0.1c-1.5-0.2-3.1-0.3-4.7,0.1c-1.6,0.4-2.9,1.4-4.2,2.3c-1,0.7-1.9,1.3-2.8,1.7    c-1.1,0.4-2.3,0.6-3.5,0.7c-1.5,0.2-3,0.4-4.4,1.1c-1.7,0.9-2.9,2.4-4,3.7c-0.6,0.8-1.2,1.5-1.9,2c-0.7,0.6-1.5,1.1-2.2,1.6    c-1.8,1.3-3.3,2.4-3.8,3.6H5c-0.6,0-1,0.4-1,1c0,5,4,9,9,9h3.5l4.7,5.6c0.2,0.2,0.5,0.4,0.8,0.4h56c0.3,0,0.6-0.1,0.8-0.4l4.7-5.6    H87c5,0,9-4,9-9C96,65.4,95.6,65,95,65z M91.4,42.5c0.5,2.3,1.3,7.3-0.6,12c-0.8,2-2.1,3.8-3.8,5.5c-0.1-0.1-0.3-0.2-0.4-0.3    c-0.6-0.5-1.2-1.2-1.8-1.9c0.3-2,0.4-3.9,0.2-5.7c-0.1-0.9-0.3-1.8-0.6-2.7C86.5,46,89.7,43.6,91.4,42.5z M77.6,41.8    c1.3,1.4,3.6,4.2,4.8,7.9c0.3,0.9,0.5,1.8,0.6,2.8c0.1,1.1,0.2,2.2,0.1,3.4c-0.7-0.7-1.4-1.3-2.3-1.8c-1.3-0.7-2.9-0.9-4.4-1.1    c-0.5-0.1-0.9-0.1-1.4-0.2C74.7,48.1,76.5,43.7,77.6,41.8z M12.4,63c0.7-0.5,1.5-1.1,2.3-1.7c0.8-0.6,1.5-1.4,2.2-2.3    c1-1.2,2-2.4,3.4-3.2c1-0.5,2.3-0.7,3.7-0.8c1.3-0.2,2.7-0.3,4-0.8c1.2-0.5,2.2-1.2,3.3-1.9c1.2-0.8,2.3-1.7,3.5-2    c1.2-0.3,2.5-0.2,3.9,0c1.3,0.1,2.6,0.3,3.9,0.1c1.3-0.2,2.5-0.7,3.6-1.1c1.4-0.5,2.6-1.1,3.9-1.1c1.2,0,2.5,0.5,3.9,1.1    c1.2,0.5,2.4,1,3.6,1.1c1.3,0.2,2.6,0,3.9-0.1c1.4-0.2,2.8-0.3,3.9,0c1.2,0.3,2.4,1.1,3.5,2c1,0.7,2.1,1.5,3.3,1.9    c1.3,0.5,2.7,0.7,4,0.8c1.4,0.2,2.7,0.3,3.7,0.8c1.4,0.7,2.4,2,3.4,3.2c0.7,0.9,1.4,1.7,2.2,2.3c0.8,0.6,1.5,1.1,2.3,1.7    c0.9,0.7,1.9,1.4,2.6,2H9.8C10.4,64.4,11.4,63.7,12.4,63z M77.5,79H22.5l-3.3-4h61.7L77.5,79z M87,73h-4H17h-4    c-3.5,0-6.4-2.6-6.9-6h87.9C93.4,70.4,90.5,73,87,73z"/><path d="M21.7,59.3c-0.4-0.4-1-0.4-1.4,0s-0.4,1,0,1.4l1,1c0.2,0.2,0.5,0.3,0.7,0.3s0.5-0.1,0.7-0.3c0.4-0.4,0.4-1,0-1.4    L21.7,59.3z"/><path d="M30.7,60.3c-0.4-0.4-1-0.4-1.4,0s-0.4,1,0,1.4l1,1c0.2,0.2,0.5,0.3,0.7,0.3s0.5-0.1,0.7-0.3c0.4-0.4,0.4-1,0-1.4    L30.7,60.3z"/><path d="M36.7,58.3c-0.4-0.4-1-0.4-1.4,0s-0.4,1,0,1.4l1,1c0.2,0.2,0.5,0.3,0.7,0.3s0.5-0.1,0.7-0.3c0.4-0.4,0.4-1,0-1.4    L36.7,58.3z"/><path d="M42.7,60.3c-0.4-0.4-1-0.4-1.4,0s-0.4,1,0,1.4l1,1c0.2,0.2,0.5,0.3,0.7,0.3s0.5-0.1,0.7-0.3c0.4-0.4,0.4-1,0-1.4    L42.7,60.3z"/><path d="M32.7,54.3c-0.4-0.4-1-0.4-1.4,0s-0.4,1,0,1.4l1,1c0.2,0.2,0.5,0.3,0.7,0.3s0.5-0.1,0.7-0.3c0.4-0.4,0.4-1,0-1.4    L32.7,54.3z"/><path d="M38.7,52.3c-0.4-0.4-1-0.4-1.4,0s-0.4,1,0,1.4l1,1c0.2,0.2,0.5,0.3,0.7,0.3s0.5-0.1,0.7-0.3c0.4-0.4,0.4-1,0-1.4    L38.7,52.3z"/><path d="M26.7,56.3c-0.4-0.4-1-0.4-1.4,0s-0.4,1,0,1.4l1,1c0.2,0.2,0.5,0.3,0.7,0.3s0.5-0.1,0.7-0.3c0.4-0.4,0.4-1,0-1.4    L26.7,56.3z"/><path d="M44.7,54.3c-0.4-0.4-1-0.4-1.4,0s-0.4,1,0,1.4l1,1c0.2,0.2,0.5,0.3,0.7,0.3s0.5-0.1,0.7-0.3c0.4-0.4,0.4-1,0-1.4    L44.7,54.3z"/><path d="M68.7,54.3c-0.4-0.4-1-0.4-1.4,0l-1,1c-0.4,0.4-0.4,1,0,1.4c0.2,0.2,0.5,0.3,0.7,0.3s0.5-0.1,0.7-0.3l1-1    C69.1,55.3,69.1,54.7,68.7,54.3z"/><path d="M73.3,56.3l-1,1c-0.4,0.4-0.4,1,0,1.4c0.2,0.2,0.5,0.3,0.7,0.3s0.5-0.1,0.7-0.3l1-1c0.4-0.4,0.4-1,0-1.4    S73.7,55.9,73.3,56.3z"/><path d="M62.7,52.3c-0.4-0.4-1-0.4-1.4,0l-1,1c-0.4,0.4-0.4,1,0,1.4c0.2,0.2,0.5,0.3,0.7,0.3s0.5-0.1,0.7-0.3l1-1    C63.1,53.3,63.1,52.7,62.7,52.3z"/><path d="M56.7,54.3c-0.4-0.4-1-0.4-1.4,0l-1,1c-0.4,0.4-0.4,1,0,1.4c0.2,0.2,0.5,0.3,0.7,0.3s0.5-0.1,0.7-0.3l1-1    C57.1,55.3,57.1,54.7,56.7,54.3z"/><path d="M78.3,59.3l-1,1c-0.4,0.4-0.4,1,0,1.4c0.2,0.2,0.5,0.3,0.7,0.3s0.5-0.1,0.7-0.3l1-1c0.4-0.4,0.4-1,0-1.4    S78.7,58.9,78.3,59.3z"/><path d="M69.3,60.3l-1,1c-0.4,0.4-0.4,1,0,1.4c0.2,0.2,0.5,0.3,0.7,0.3s0.5-0.1,0.7-0.3l1-1c0.4-0.4,0.4-1,0-1.4    S69.7,59.9,69.3,60.3z"/><path d="M63.3,58.3l-1,1c-0.4,0.4-0.4,1,0,1.4c0.2,0.2,0.5,0.3,0.7,0.3s0.5-0.1,0.7-0.3l1-1c0.4-0.4,0.4-1,0-1.4    S63.7,57.9,63.3,58.3z"/><path d="M57.3,60.3l-1,1c-0.4,0.4-0.4,1,0,1.4c0.2,0.2,0.5,0.3,0.7,0.3s0.5-0.1,0.7-0.3l1-1c0.4-0.4,0.4-1,0-1.4    S57.7,59.9,57.3,60.3z"/><path d="M42.2,42.8c0.6,0.1,1.3,0.2,2,0.2c1.8,0,3.7-0.4,5.4-1.2c3.1-1.4,5.5-3.7,6.4-6.3L81.8,25c0.8-0.3,1.3-0.9,1.7-1.7    c0.3-0.8,0.3-1.7-0.1-2.5c-0.7-1.6-2.5-2.3-4-1.6c0,0,0,0,0,0L53.1,31c-4.5-1.8-8.1-1.9-10.8-0.3c-3.4,2-4.1,6-4.2,7l-0.4,0.2    c-0.5,0.2-0.7,0.8-0.5,1.3C37.9,41.1,39.7,42.4,42.2,42.8z M80.2,21.1c0.5-0.2,1.2,0,1.4,0.6c0.1,0.3,0.1,0.6,0,0.9    c-0.1,0.3-0.3,0.5-0.6,0.6L54.8,33.8c-0.3,0.1-0.5,0.3-0.6,0.6c-0.7,2.2-2.8,4.3-5.5,5.5c-2.1,0.9-4.3,1.3-6.2,0.9    c-1.3-0.3-2.4-0.8-3.1-1.6L80.2,21.1z M43.3,32.4c1.8-1.1,4.2-1.1,7.1-0.2l-10.2,4.5C40.7,35.4,41.5,33.5,43.3,32.4z"/><path d="M49.7,57.3c-0.4-0.4-1-0.4-1.4,0s-0.4,1,0,1.4l1,1c0.2,0.2,0.5,0.3,0.7,0.3s0.5-0.1,0.7-0.3c0.4-0.4,0.4-1,0-1.4    L49.7,57.3z"/><path d="M50.3,52.3l-1,1c-0.4,0.4-0.4,1,0,1.4c0.2,0.2,0.5,0.3,0.7,0.3s0.5-0.1,0.7-0.3l1-1c0.4-0.4,0.4-1,0-1.4    S50.7,51.9,50.3,52.3z"/></g></g></svg>