<svg xmlns="http://www.w3.org/2000/svg" xmlns:xlink="http://www.w3.org/1999/xlink" version="1.1" x="0px" y="0px" viewBox="0 0 100 125" style="enable-background:new 0 0 100 100;" xml:space="preserve"><g><g><g><g><path d="M94.7,58.6H30.9c-0.6,0-1-0.5-1-1c0-0.6,0.5-1,1-1h63.8c1.8,0,3.2-1.4,3.2-3.2c0-1.8-1.4-3.2-3.2-3.2      H30.9c-0.6,0-1-0.5-1-1c0-0.6,0.5-1,1-1h63.8c2.9,0,5.3,2.4,5.3,5.3C100,56.2,97.6,58.6,94.7,58.6z"/></g><g><path d="M88.8,79.2c-0.2,0-0.3,0-0.5-0.1c-0.5-0.3-0.7-0.9-0.4-1.4c5.3-9.3,5.6-20,5.7-20.1c0-0.6,0.5-1,1.1-1      c0.6,0,1,0.5,1,1.1c0,0.5-0.4,11.2-5.9,21C89.6,79,89.2,79.2,88.8,79.2z"/></g><g><path d="M62.2,92.2H36.4c-0.1,0-0.2,0-0.3-0.1C28,89.3,22,83.1,18.2,73.7c-0.2-0.5,0-1.1,0.6-1.3      c0.5-0.2,1.1,0,1.3,0.6c3.5,8.8,9,14.6,16.5,17.3h25.6c0.6,0,1,0.5,1,1S62.8,92.2,62.2,92.2z"/></g><g><path d="M64.5,97.9H40.3c-1.7,0-3.3-0.8-4.2-2.2c-1-1.4-1.2-3.1-0.7-4.6c0.1-0.2,0.1-0.2,0.1-0.2      c0.2-0.5,0.8-0.8,1.4-0.5c0.5,0.2,0.8,0.8,0.6,1.3l0,0.1c-0.3,0.9-0.2,1.9,0.4,2.8c0.6,0.8,1.5,1.3,2.6,1.3h24.2      c0.6,0,1,0.5,1,1C65.5,97.4,65.1,97.9,64.5,97.9z"/></g></g></g><g><g><path d="M51.4,24.9c-0.3,0-0.5-0.1-0.7-0.3c-0.4-0.4-0.4-1.1,0-1.5l0.7-0.7c1.3-1.3,1.3-3.5,0-4.9L49.9,16     c-1-1-1.6-2.4-1.6-3.9c0-1.5,0.6-2.9,1.6-3.9l0.7-0.7c0.4-0.4,1.1-0.4,1.5,0c0.4,0.4,0.4,1.1,0,1.5l-0.7,0.7     c-1.3,1.3-1.3,3.5,0,4.9l1.4,1.4c1,1,1.6,2.4,1.6,3.9c0,1.5-0.6,2.9-1.6,3.9l-0.7,0.7C51.9,24.8,51.7,24.9,51.4,24.9z"/></g><g><path d="M60.1,24.9c-0.3,0-0.5-0.1-0.7-0.3c-0.4-0.4-0.4-1.1,0-1.5l0.7-0.7c1.3-1.3,1.3-3.5,0-4.9L58.6,16     c-2.2-2.2-2.2-5.7,0-7.8l0.7-0.7c0.4-0.4,1.1-0.4,1.5,0c0.4,0.4,0.4,1.1,0,1.5l-0.7,0.7c-1.3,1.3-1.3,3.5,0,4.9l1.4,1.4     c1,1,1.6,2.4,1.6,3.9c0,1.5-0.6,2.9-1.6,3.9l-0.7,0.7C60.6,24.8,60.3,24.9,60.1,24.9z"/></g><g><path d="M68.7,24.9c-0.3,0-0.5-0.1-0.7-0.3c-0.4-0.4-0.4-1.1,0-1.5l0.7-0.7c1.3-1.3,1.3-3.5,0-4.9L67.3,16     c-2.2-2.2-2.2-5.7,0-7.8L68,7.5c0.4-0.4,1.1-0.4,1.5,0c0.4,0.4,0.4,1.1,0,1.5l-0.7,0.7c-1.3,1.3-1.3,3.5,0,4.9l1.4,1.4     c1,1,1.6,2.4,1.6,3.9c0,1.5-0.6,2.9-1.6,3.9l-0.7,0.7C69.2,24.8,69,24.9,68.7,24.9z"/></g></g><g><path d="M49.6,45.5c-0.3,0-0.5-0.1-0.7-0.3c-0.7-0.7-1-1.5-1-2.5c0-0.9,0.4-1.8,1-2.5l4.2-4.2    c0.7-0.7,1.5-1,2.5-1c0.9,0,1.8,0.4,2.5,1l4.2,4.2c0.7,0.7,1,1.5,1,2.5c0,0.9-0.4,1.8-1,2.5c-0.4,0.4-1.1,0.4-1.5,0    c-0.4-0.4-0.4-1.1,0-1.5c0.3-0.3,0.4-0.6,0.4-1c0-0.4-0.2-0.7-0.4-1l-4.2-4.2c-0.5-0.5-1.5-0.5-2,0l-4.2,4.2    c-0.3,0.3-0.4,0.6-0.4,1c0,0.4,0.2,0.8,0.4,1c0.4,0.4,0.4,1.1,0,1.5C50.1,45.4,49.9,45.5,49.6,45.5z"/></g><g><path d="M75.4,45c-0.3,0-0.5-0.1-0.7-0.3c-0.4-0.4-0.4-1.1,0-1.5c0.4-0.4,0.7-1,0.7-1.6s-0.2-1.2-0.7-1.6    l-5.5-5.5c-0.8-0.8-2.3-0.8-3.1,0l-2.6,2.7c-0.4,0.4-1,0.4-1.5,0c-0.4-0.4-0.4-1,0-1.5l2.6-2.8c0.8-0.8,1.9-1.3,3.1-1.3    c1.1,0,2.2,0.4,3,1.3l5.5,5.5c0.8,0.8,1.3,1.9,1.3,3c0,1.1-0.4,2.2-1.3,3C75.9,44.9,75.6,45,75.4,45z"/></g><g><path d="M17,27.6c-0.3,0-0.7-0.2-0.9-0.5c-0.3-0.5-0.2-1.1,0.3-1.4c2.8-1.8,4.7-4.6,5.3-7.9    c0.7-3.2,0-6.6-1.8-9.3c-3-4.5-9-5.7-13.5-2.8c-1.7,1.1-2.8,2.8-3.2,4.8c-0.4,2,0,4,1.1,5.7c0.9,1.3,2.2,2.2,3.7,2.5    c1.5,0.3,3.1,0,4.4-0.8c2.1-1.4,2.6-4.1,1.3-6.2c-0.3-0.5-0.2-1.1,0.3-1.4c0.5-0.3,1.1-0.2,1.4,0.3c2,3,1.2,7.1-1.9,9.1    c-3.6,2.4-8.6,1.4-11-2.3c-1.4-2.1-1.9-4.7-1.4-7.2c0.5-2.5,2-4.7,4.1-6.1C10.8,0.5,18.2,2,21.7,7.4c2.1,3.2,2.9,7.1,2.1,10.9    c-0.8,3.8-3,7-6.2,9.2C17.4,27.6,17.2,27.6,17,27.6z"/></g><g><g><path d="M10.7,72.6c-0.2,0-0.3,0-0.5-0.1c-0.3-0.1-0.4-0.3-0.5-0.6C9.5,71.1,3.1,51.5,9,42.8     c1.7-2.6,4.4-4,7.8-4.2c0,0,0,0,0,0c6.1,0,11,4.9,11,10.9c0,1.8-0.4,2.9-0.7,3.7c-0.3,0.9-0.4,1.3-0.1,2.1c1.2,3,1,6.4-0.6,9.3     c-1.6,2.9-4.3,4.9-7.5,5.5c-2.8,0.5-4.7,1.2-7,2.1l-0.8,0.3C11,72.6,10.9,72.6,10.7,72.6z M16.9,40.7c-2.7,0.2-4.7,1.2-6.1,3.3     c-4.7,6.9-0.6,22.2,0.7,26.3c2.1-0.8,4.2-1.5,7.1-2.1c2.6-0.5,4.8-2.1,6.1-4.4c1.3-2.3,1.5-5.1,0.5-7.5c-0.6-1.5-0.3-2.6,0.1-3.6     c0.3-0.8,0.6-1.6,0.6-3.1C25.7,44.6,21.7,40.7,16.9,40.7z"/></g><g><path d="M22.8,40.1c-0.6,0-1-0.5-1-1c0-2.7-2.2-4.9-4.9-4.9c-2.7,0-4.9,2.2-4.9,4.9c0,0.6-0.5,1-1,1s-1-0.5-1-1     c0-3.8,3.1-6.9,6.9-6.9c3.8,0,6.9,3.1,6.9,6.9C23.8,39.6,23.3,40.1,22.8,40.1z"/></g><g><path d="M11.5,42.6c-0.4,0-0.8-0.2-0.9-0.6c-1-2.2-0.8-4.7,0.4-6.7c1.3-2,3.5-3.2,5.9-3.2c2.3,0,4.5,1.1,5.8,3.1     c1.3,1.9,1.5,4.4,0.7,6.5c-0.2,0.5-0.8,0.8-1.4,0.6c-0.5-0.2-0.8-0.8-0.6-1.4c0.6-1.5,0.5-3.2-0.5-4.6c-0.9-1.4-2.4-2.2-4-2.2     c-1.7,0-3.2,0.8-4.1,2.3c-0.9,1.4-1,3.2-0.3,4.7c0.2,0.5,0,1.1-0.5,1.4C11.8,42.5,11.6,42.6,11.5,42.6z"/></g><g><path d="M16.9,34.2c-0.6,0-1-0.5-1-1v-6.5c0-0.6,0.5-1,1-1c0.6,0,1,0.5,1,1v6.5C17.9,33.7,17.4,34.2,16.9,34.2z"/></g></g><g><g><path d="M82.8,97.9c-1.9,0-3.8-0.6-5.4-1.8c-4-3-4.9-8.7-1.9-12.7l0,0c1.4-2,3.6-3.2,6-3.6     c2.4-0.4,4.8,0.2,6.8,1.7c2,1.4,3.2,3.6,3.6,6c0.4,2.4-0.2,4.8-1.7,6.8c-1.4,2-3.6,3.2-6,3.6C83.7,97.8,83.3,97.9,82.8,97.9z      M77.2,84.6c-2.3,3.1-1.7,7.5,1.5,9.8c1.5,1.1,3.4,1.6,5.2,1.3c1.9-0.3,3.5-1.3,4.6-2.8c1.1-1.5,1.6-3.4,1.3-5.2     c-0.3-1.9-1.3-3.5-2.8-4.6c-1.5-1.1-3.4-1.6-5.2-1.3C80,82.1,78.3,83.1,77.2,84.6L77.2,84.6z"/></g><g><path d="M72.6,97.9c-1.4,0-2.9-0.4-4.1-1.4c-1.5-1.1-2.5-2.7-2.7-4.6c-0.3-1.8,0.2-3.7,1.3-5.2     c2.1-2.8,5.8-3.6,8.8-2c0.5,0.3,0.7,0.9,0.4,1.4c-0.3,0.5-0.9,0.7-1.4,0.4c-2.1-1.1-4.7-0.5-6.2,1.4c-0.8,1-1.1,2.3-0.9,3.6     c0.2,1.3,0.9,2.4,1.9,3.2c2.1,1.6,5.1,1.2,6.7-0.9c0.4-0.4,1-0.5,1.5-0.2c0.4,0.4,0.5,1,0.2,1.5C76.7,97,74.7,97.9,72.6,97.9z"/></g></g><g><path d="M87.3,46.2c-0.3,0-0.5-0.1-0.7-0.3c-0.4-0.4-0.4-1.1,0-1.5l1.5-1.5c0.2-0.2,0.4-0.6,0.4-0.9    c0-0.3-0.1-0.7-0.4-0.9l-4.9-4.9c-0.5-0.5-1.3-0.5-1.8,0L79.6,38c-0.4,0.4-1.1,0.4-1.5,0c-0.4-0.4-0.4-1.1,0-1.5l1.8-1.8    c0.6-0.6,1.5-1,2.4-1c0.9,0,1.7,0.3,2.4,1l4.9,4.9c0.6,0.6,1,1.5,1,2.4c0,0.9-0.3,1.7-1,2.4L88,45.9    C87.8,46.1,87.6,46.2,87.3,46.2z"/></g><g><path d="M5.3,29.1c-2.7,0-4.4-0.3-4.5-0.3c-0.6-0.1-0.9-0.6-0.9-1.2c0.1-0.6,0.6-0.9,1.2-0.9    c0.2,0,23.6,3.6,38.4-17.8c0.3-0.5,1-0.6,1.4-0.3c0.5,0.3,0.6,1,0.3,1.4C29.8,26.9,13.2,29.1,5.3,29.1z"/></g></g></svg>